# xmcd
#
# Track frame offsets:
#	150
#	15996
#	36480
#	53943
#	62727
#	79334
#	105599
#	121406
#	139094
#	156637
#	169417
#	188283
#	202680
#	215027
#
# Disc length: 3086 seconds
#
# Revision: 0
# Processed by: cddbd v1.5.1PL0 Copyright (c) Steve Scherf et al.
# Submitted via: dBpowerAMP V4.0
#
DISCID=c40c0c0e
DTITLE=Cajú and Castanha - O Melhor de
DYEAR=1900
DGENRE=Brega
TTITLE0=A herança da minha vó
TTITLE1=A mulher do corno rico e do corno pobre
TTITLE2=A mulher feia e a mulher bonita
TTITLE3=Cajú, um guerreiro
TTITLE4=Dna, a verdade vai mostrar
TTITLE5=Futebol no inferno
TTITLE6=Lavadeira do rio
TTITLE7=Melô da CPI
TTITLE8=Menina diet
TTITLE9=O carrité do coroné
TTITLE10=O crente e o cachaceiro
TTITLE11=Professor de embolada
TTITLE12=Solidão de um caminhoneiro
TTITLE13=TOô doidia
EXTD=
EXTT0=
EXTT1=
EXTT2=
EXTT3=
EXTT4=
EXTT5=
EXTT6=
EXTT7=
EXTT8=
EXTT9=
EXTT10=
EXTT11=
EXTT12=
EXTT13=
PLAYORDER=
